# xmcd
#
# Track frame offsets: 
#        150
#        19809
#        43153
#        62497
#        79993
#        99807
#        115646
#        135822
#        152649
#        170352
#        188442
#        205278
#        226260
#        245971
#        267169
#        286385
#        298716
#        313019
#
# Disc length: 4375 seconds
#
# Revision: 12
# Processed by: cddbd v1.5.2PL0 Copyright (c) Steve Scherf et al.
# Submitted via: ExactAudioCopy v1.3
#
DISCID=f1111512
DTITLE=Samuele Bersani - Che Vita! Il Meglio Di
DYEAR=2002
DGENRE=Pop
TTITLE0=Che Vita! (Inedito)
TTITLE1=Il Mostro (Versione 2002)
TTITLE2=Chicco E Spillo
TTITLE3=Freak
TTITLE4=Spaccacuore
TTITLE5=Cosa Vuoi Da Me
TTITLE6=Cado Giù
TTITLE7=Barcarola Albanese
TTITLE8=Giudizi Universali
TTITLE9=Coccodrilli
TTITLE10=Braccio Di Ferro
TTITLE11=Crazy Boy
TTITLE12=Replay
TTITLE13=Il Pescatore Di Asterischi
TTITLE14=Senza Titoli
TTITLE15=Chiedimi Se Sono Felice
TTITLE16=Milingo (Inedito)
TTITLE17=Le Mie Parole (Inedito)
EXTD=[BMG]
EXTT0=Bersani - Guarino
EXTT1=Samuele Bersani
EXTT2=Samuele Bersani
EXTT3=Samuele Bersani
EXTT4=Bersani - D'Onghia
EXTT5=Bersani - Scott
EXTT6=Bersani - D'Onghia
EXTT7=Samuele Bersani
EXTT8=Bersani - D'Onghia
EXTT9=Bersani - D'Onghia
EXTT10=Bersani - D'Onghia
EXTT11=Bersani - Fabrizi
EXTT12=Bersani - D'Onghia
EXTT13=Bersani - D'Onghia
EXTT14=Samuele Bersani
EXTT15=Samuele Bersani
EXTT16=Bersani - Guarino
EXTT17=Gino De Crescenzo "Pacifico"
PLAYORDER=
